<svg width="651" height="94" viewBox="0 0 679 94" fill="none" xmlns="http://www.w3.org/2000/svg">
<path d="M572.668 66.7635H548.79C546.052 66.7635 543.427 65.6599 541.491 63.6955C539.555 61.731 538.468 59.0667 538.468 56.2885V37.7118C538.466 36.1959 538.789 34.6976 539.416 33.3213C540.042 31.9449 540.956 30.7234 542.094 29.7416C543.959 28.123 546.333 27.2354 548.787 27.2398H572.665L572.668 66.7635Z" fill="#2B3872"/>
<path d="M628.324 87.4123H580.634C578.882 87.4123 577.148 87.0622 575.529 86.3818C573.911 85.7014 572.441 84.7041 571.202 83.447C569.964 82.1898 568.981 80.6974 568.311 79.0549C567.641 77.4124 567.296 75.6521 567.297 73.8744V20.1258C567.297 16.5361 568.702 13.0934 571.203 10.5551C573.704 8.01682 577.097 6.59082 580.634 6.59082H628.324V87.4123Z" fill="#4656A1"/>
<path d="M628.333 1.77406V92.22C628.333 93.2015 629.117 93.9971 630.084 93.9971H637.082C638.049 93.9971 638.833 93.2015 638.833 92.22V1.77406C638.833 0.792648 638.049 -0.00296783 637.082 -0.00296783H630.084C629.117 -0.00296783 628.333 0.792648 628.333 1.77406Z" fill="#38488C"/>
<path d="M638.833 34.8709V21.0962H671.293C672.185 21.0962 673.067 21.2744 673.891 21.6206C674.714 21.9668 675.462 22.4743 676.092 23.114C676.722 23.7538 677.222 24.5132 677.563 25.349C677.904 26.1848 678.079 27.0805 678.079 27.985C678.079 29.8112 677.364 31.5627 676.091 32.854C674.819 34.1454 673.093 34.8709 671.293 34.8709H638.833Z" fill="#232851"/>
<path d="M678.079 66.0152C678.079 67.8415 677.364 69.593 676.091 70.8844C674.819 72.1757 673.093 72.9011 671.293 72.9011H638.833V59.1265H671.293C673.093 59.1265 674.819 59.8519 676.091 61.1432C677.364 62.4346 678.079 64.1861 678.079 66.0124V66.0152Z" fill="#232851"/>
<path d="M628.324 87.4123H580.634C578.882 87.4123 577.148 87.0622 575.529 86.3818C573.911 85.7014 572.441 84.7041 571.202 83.447C569.964 82.1898 568.981 80.6974 568.311 79.0549C567.641 77.4124 567.296 75.6521 567.297 73.8744V20.1258C567.297 16.5361 568.702 13.0934 571.203 10.5551C573.704 8.01682 577.097 6.59082 580.634 6.59082C584.605 64.627 628.324 69.9638 628.324 69.9638V87.4123Z" fill="#38488C"/>
<path d="M628.333 87.4095V6.58789H624.488V87.4095H628.333Z" fill="#2B3872"/>
<path d="M608.164 87.4122H580.628C578.876 87.4122 577.142 87.062 575.524 86.3816C573.905 85.7012 572.435 84.704 571.196 83.4468C569.958 82.1897 568.975 80.6972 568.305 79.0547C567.635 77.4122 567.291 75.6519 567.291 73.8742V36.1421C567.297 74.2454 608.164 87.4122 608.164 87.4122Z" fill="#2B3872"/>
<path d="M567.299 66.7635V27.2397H564.805V66.7635H567.299Z" fill="#232851"/>
<path d="M643.585 34.8709V21.0962H638.833V34.8709H643.585Z" fill="#15172D"/>
<path d="M643.588 72.9012V59.1265H638.836V72.9012H643.588Z" fill="#15172D"/>
<path d="M567.297 66.7631H548.79C546.052 66.7631 543.427 65.6595 541.491 63.6951C539.555 61.7306 538.468 59.0662 538.468 56.2881V37.7114C538.466 36.1955 538.789 34.6972 539.416 33.3209C540.042 31.9445 540.956 30.723 542.094 29.7412C538.595 58.6964 567.294 63.1185 567.294 63.1185L567.297 66.7631Z" fill="#232851"/>
<path d="M538.468 40.9209H0V53.0823H538.468V40.9209Z" fill="#2C447D"/>
</svg>
