<svg width="651" height="94" viewBox="0 0 651 94" fill="none" xmlns="http://www.w3.org/2000/svg">
<path d="M66.6279 66.7635H90.5059C93.2435 66.7635 95.8689 65.6599 97.8046 63.6955C99.7404 61.731 100.828 59.0667 100.828 56.2885V37.7118C100.83 36.1959 100.506 34.6976 99.8803 33.3213C99.2541 31.9449 98.3401 30.7234 97.2019 29.7416V29.7416C95.3371 28.123 92.9627 27.2354 90.5088 27.2398H66.6308L66.6279 66.7635Z" fill="#2B3872"/>
<path d="M10.9718 87.4123H58.6704C60.4221 87.4123 62.1567 87.0622 63.775 86.3818C65.3934 85.7014 66.8637 84.7041 68.1023 83.447C69.3408 82.1898 70.3231 80.6974 70.9932 79.0549C71.6633 77.4124 72.008 75.6521 72.0076 73.8744V20.1258C72.0076 16.5361 70.6025 13.0934 68.1013 10.5551C65.6001 8.01682 62.2077 6.59082 58.6704 6.59082H10.9718V87.4123Z" fill="#4656A1"/>
<path d="M0.465637 1.77406L0.465637 92.22C0.465637 93.2015 1.24962 93.9971 2.21669 93.9971H9.21501C10.1821 93.9971 10.9661 93.2015 10.9661 92.22L10.9661 1.77406C10.9661 0.792648 10.1821 -0.00296783 9.21501 -0.00296783H2.21669C1.24962 -0.00296783 0.465637 0.792648 0.465637 1.77406Z" fill="#38488C"/>
<path d="M10.9718 87.4123H58.6704C60.4221 87.4123 62.1567 87.0622 63.775 86.3818C65.3934 85.7014 66.8637 84.7041 68.1023 83.447C69.3408 82.1898 70.3231 80.6974 70.9932 79.0549C71.6633 77.4124 72.008 75.6521 72.0076 73.8744V20.1258C72.0076 16.5361 70.6025 13.0934 68.1013 10.5551C65.6001 8.01682 62.2077 6.59082 58.6704 6.59082C54.6902 64.627 10.9718 69.9638 10.9718 69.9638V87.4123Z" fill="#38488C"/>
<path d="M14.8109 87.4124L14.8109 6.59082H10.9661L10.9661 87.4124H14.8109Z" fill="#2B3872"/>
<path d="M31.1318 87.4121H58.6674C60.4191 87.4121 62.1537 87.062 63.772 86.3816C65.3903 85.7012 66.8607 84.704 68.0992 83.4468C69.3377 82.1896 70.3201 80.6972 70.9902 79.0547C71.6603 77.4122 72.005 75.6519 72.0046 73.8742V36.1421C71.9988 74.2454 31.1318 87.4121 31.1318 87.4121Z" fill="#2B3872"/>
<path d="M74.4931 66.7605V27.2368H71.9988V66.7605H74.4931Z" fill="#232851"/>
<path d="M71.999 66.7631H90.5059C93.2434 66.7631 95.8689 65.6595 97.8046 63.6951C99.7404 61.7306 100.828 59.0662 100.828 56.2881V37.7114C100.83 36.1955 100.506 34.6972 99.8803 33.3209C99.2541 31.9445 98.3401 30.723 97.2019 29.7412C100.701 58.6964 72.0018 63.1185 72.0018 63.1185L71.999 66.7631Z" fill="#232851"/>
<path d="M651 42.1719H100.831V54.3332H651V42.1719Z" fill="#2C447D"/>
</svg>
